<?xml version="1.0" encoding="UTF-8"?>
<svg width="542px" height="542px" viewBox="0 0 542 542" version="1.1" xmlns="http://www.w3.org/2000/svg" xmlns:xlink="http://www.w3.org/1999/xlink">
    <title>Group 3</title>
    <defs>
        <linearGradient x1="50%" y1="0%" x2="50%" y2="100%" id="linearGradient-1">
            <stop stop-color="#2E2E34" offset="0%"></stop>
            <stop stop-color="#202020" offset="100%"></stop>
        </linearGradient>
    </defs>
    <g id="Page-1" stroke="none" stroke-width="1" fill="none" fill-rule="evenodd">
        <g id="Group-3">
            <rect id="Rectangle" fill="url(#linearGradient-1)" x="0" y="0" width="542" height="542" rx="73"></rect>
            <path d="M271.5,417 C268.940879,417 266.513012,416.664968 264.216397,415.993368 C261.917132,415.324842 259.749121,414.399663 257.712206,413.216295 L152.791691,353.428526 C148.354188,350.905032 144.946912,347.547032 142.569706,343.351453 C140.189897,339.1528 139,334.580695 139,329.6336 L139,212.365632 C139,207.419613 140.189897,202.847507 142.569706,198.649316 C144.946912,194.453737 148.354188,191.094507 152.791691,188.571474 L257.712206,128.784458 C259.749121,127.60109 261.917132,126.675158 264.216397,126.006632 C266.513012,125.335539 268.940879,125 271.5,125 C273.957797,125 276.33625,125.335539 278.635515,126.006632 C280.932129,126.675158 283.149556,127.60109 285.287794,128.784458 L390.207529,188.571474 C394.547294,191.094507 397.929941,194.453737 400.357029,198.649316 C402.785676,202.847507 404,207.419613 404,212.365632 L404,329.6336 C404,334.580695 402.785676,339.1528 400.357029,343.351453 C397.929941,347.547032 394.547294,350.905032 390.207529,353.428526 L285.287794,413.216295 C283.149556,414.399663 280.932129,415.324842 278.635515,415.993368 C276.33625,416.664968 273.957797,417 271.5,417 Z M214.31632,327.754801 L214.31632,283 L162,283 L162,329.641148 C162,330.425084 162.201174,331.161556 162.60368,331.850562 C163.006186,332.536506 163.608454,333.12599 164.4108,333.614419 L260,388 L260,327.754801 L214.31632,327.754801 Z M214.31632,214.245525 L260,214.245525 L260,154 L164.4108,208.385185 C163.608454,208.875141 163.006186,209.463395 162.60368,210.149794 C162.201174,210.838796 162,211.574955 162,212.358427 L162,259 L214.31632,259 L214.31632,214.245525 Z M238,305 L305,305 L305,238 L238,238 L238,305 Z M328.531584,327.754801 L283,327.754801 L283,388 L378.588416,333.614419 C379.391232,333.12599 379.993344,332.536506 380.39632,331.850562 C380.799296,331.161556 381,330.425084 381,329.641148 L381,283 L328.531584,283 L328.531584,327.754801 Z M328.531584,214.245525 L328.531584,259 L381,259 L381,212.358427 C381,211.574955 380.799296,210.838796 380.39632,210.149794 C379.993344,209.463395 379.391232,208.875141 378.588416,208.385185 L283,154 L283,214.245525 L328.531584,214.245525 Z" id="Shape" fill="#FFFFFF"></path>
        </g>
    </g>
</svg>